<svg xmlns="http://www.w3.org/2000/svg" viewBox="0 0 200 200">
  <defs>
    <linearGradient id="gf" x1="0%" y1="0%" x2="100%" y2="100%">
      <stop offset="0%" stop-color="#7C5B22"/>
      <stop offset="50%" stop-color="#F0D795"/>
      <stop offset="100%" stop-color="#7C5B22"/>
    </linearGradient>
    <radialGradient id="sun" cx="50%" cy="50%" r="50%">
      <stop offset="0%" stop-color="#F5E4B3"/>
      <stop offset="100%" stop-color="#A17433"/>
    </radialGradient>
    <linearGradient id="gd" x1="0%" y1="0%" x2="50%" y2="100%">
      <stop offset="0%" stop-color="#A17433"/>
      <stop offset="100%" stop-color="#5E4218"/>
    </linearGradient>
    <linearGradient id="gh" x1="0%" y1="0%" x2="50%" y2="100%">
      <stop offset="0%" stop-color="#F5E4B3"/>
      <stop offset="100%" stop-color="#D9A94A"/>
    </linearGradient>
  </defs>
  <rect width="200" height="200" fill="#0A0D11" rx="32"/>
  <circle cx="100" cy="100" r="84" fill="none" stroke="url(#gf)" stroke-width="2"/>
  <g transform="translate(100 100)">
    <polygon points="0,-72 -6,0 0,-8" fill="url(#gd)"/>
    <polygon points="0,-72 6,0 0,-8" fill="url(#gh)"/>
    <polygon points="72,0 0,-6 8,0" fill="url(#gh)"/>
    <polygon points="72,0 0,6 8,0" fill="url(#gd)"/>
    <polygon points="0,72 -6,0 0,8" fill="url(#gh)"/>
    <polygon points="0,72 6,0 0,8" fill="url(#gd)"/>
    <polygon points="-72,0 0,-6 -8,0" fill="url(#gd)"/>
    <polygon points="-72,0 0,6 -8,0" fill="url(#gh)"/>
    <g transform="rotate(45)"><polygon points="0,-50 -4,0 0,-6" fill="url(#gd)"/><polygon points="0,-50 4,0 0,-6" fill="url(#gh)"/></g>
    <g transform="rotate(135)"><polygon points="0,-50 -4,0 0,-6" fill="url(#gd)"/><polygon points="0,-50 4,0 0,-6" fill="url(#gh)"/></g>
    <g transform="rotate(225)"><polygon points="0,-50 -4,0 0,-6" fill="url(#gd)"/><polygon points="0,-50 4,0 0,-6" fill="url(#gh)"/></g>
    <g transform="rotate(315)"><polygon points="0,-50 -4,0 0,-6" fill="url(#gd)"/><polygon points="0,-50 4,0 0,-6" fill="url(#gh)"/></g>
    <circle cx="0" cy="0" r="16" fill="url(#sun)" stroke="url(#gf)" stroke-width="1.5"/>
    <polygon points="0,-10 2,-2 10,0 2,2 0,10 -2,2 -10,0 -2,-2" fill="url(#gd)"/>
    <polygon points="0,-6 1,-1 6,0 1,1 0,6 -1,1 -6,0 -1,-1" fill="url(#gh)"/>
  </g>
</svg>
